<?xml version="1.0" encoding="utf-8"?>
<!-- Generator: Adobe Illustrator 28.3.0, SVG Export Plug-In . SVG Version: 6.00 Build 0)  -->
<svg version="1.1" id="Layer_1" xmlns="http://www.w3.org/2000/svg" xmlns:xlink="http://www.w3.org/1999/xlink" x="0px" y="0px"
	 viewBox="0 0 2056 160" style="enable-background:new 0 0 2056 160;" xml:space="preserve">
<style type="text/css">
	.st0{stroke:#000000;stroke-miterlimit:10;}
</style>
<path class="st0" d="M0.5,160.5c18.5-14.1,35.7-19.6,46-22c13.5-3.1,24.7-3.1,37-3c25.1,0.1,26.4,6.5,40,4c18.3-3.3,19.4-14.3,40-20
	c17.2-4.8,19.1,2.1,37-1c32.9-5.7,55.1-34,59-39c15.8-20.2,16.2-35.2,24-35c11.5,0.2,22.9,33.3,27,50c3.1,12.4,3.2,19.9,10,30
	c2.5,3.8,10.1,14.7,23,18c7.8,2,13.4,0.2,20-1c16-2.9,22.3,0.3,50,3c10.8,1,14.8,1,55,2c108.4,2.6,172.3,5,237,6
	c264.8,4.1,369.1-17.4,508-6c19.9,1.6,83.7,7.5,168,5c40.5-1.2,34.3-2.8,63-3c86.8-0.6,133.8,17.1,175-2c1.4-0.6,0.1-0.1,41-22
	c18.6-9.9,23.4-12.5,29-19c9.5-10.9,9.4-19.3,17-21c0,0,3.9-0.9,25,10c0.3,8.3,0.7,16.7,1,25c2.8,2.2,8.5,6,15,5
	c3.4-0.5,6.4-2.3,16-13c7.4-8.3,11.1-12.5,14-17c8.1-12.8,10.6-24.9,12-32c3.9-19.7-0.7-24.1,5-34c3.6-6.2,12.4-16.6,22-16
	c16.9,1,29.7,35.3,40,63c9.7,26.1,9.8,36.3,20,41c10.3,4.8,18.1-2,41,2c4,0.7,5.5,1.2,21,6c31.6,9.8,47.4,14.8,50,15
	c22.4,2,31.5-5.1,47,2c10.6,4.8,17.2,13.1,21,19H0.5z"/>
</svg>
