<?xml version="1.0" encoding="utf-8"?>
<!-- Generator: Adobe Illustrator 28.3.0, SVG Export Plug-In . SVG Version: 6.00 Build 0)  -->
<svg version="1.1" id="Layer_1" xmlns="http://www.w3.org/2000/svg" xmlns:xlink="http://www.w3.org/1999/xlink" x="0px" y="0px"
	 viewBox="0 0 2056 160" style="enable-background:new 0 0 2056 160;" xml:space="preserve">
<style type="text/css">
	.st0{fill:none;stroke:#000000;stroke-width:2;stroke-miterlimit:10;}
</style>
<line class="st0" x1="0.9" y1="160" x2="2056.9" y2="160"/>
<g>
	<g>
		<path d="M184.1,121.6c0.9-6.5,3.4-12.7,6.7-18.4c1.6-2.8,3.3-5.5,4.6-8.4c1.3-3,1.9-6.1,1.9-9.4c-0.1-6.9-2.6-13.6-4.6-20.1
			c-2.1-6.9-4.2-13.8-6.3-20.6c-0.5-1.7-1.2-3.5-0.7-5.3s1.4-3.5,2.2-5.2c1.7-3.8,3.5-7.5,5.2-11.3c0.8-1.7-1.8-3.3-2.6-1.5
			c-1.5,3.3-3.1,6.6-4.6,9.9c-1.3,2.9-3.4,6.1-3.4,9.4c0,1.6,0.5,3.2,1,4.8c0.5,1.7,1.1,3.5,1.6,5.2c1.1,3.5,2.1,7,3.2,10.4
			c1.1,3.5,2.1,7,3.2,10.4c1,3.3,2,6.6,2.5,10.1c0.5,3.4,0.5,6.9-0.6,10.1c-1,3-2.7,5.8-4.3,8.5c-3.7,6.3-6.7,13.1-7.7,20.5
			c-0.1,0.8,0.2,1.6,1,1.8C183,122.9,184,122.4,184.1,121.6L184.1,121.6z"/>
	</g>
</g>
<g>
	<g>
		<path d="M195.7,71.3c-1.4-5-0.7-9.8,1.1-14.6c1.7-4.4,3.6-9.2,1.8-13.9c-0.7-1.8-3.6-1-2.9,0.8c1.9,4.8-0.8,9.5-2.4,14
			c-1.6,4.7-1.8,9.7-0.5,14.4C193.3,74,196.2,73.2,195.7,71.3L195.7,71.3z"/>
	</g>
</g>
<g>
	<g>
		<path d="M194.8,72.9c-3.5-5.6-10.8-5.6-15.4-9.8c-2.7-2.5-4-5.4-4.3-9.1c-0.3-4.2-0.6-8.5-0.9-12.7c-0.1-1.9-3.1-1.9-3,0
			c0.3,4.4,0.5,8.8,0.9,13.2c0.3,3.7,1.5,6.9,4.1,9.6c2.3,2.5,5.3,4,8.4,5.3c2.8,1.1,6,2.3,7.7,4.9
			C193.2,76.1,195.8,74.6,194.8,72.9L194.8,72.9z"/>
	</g>
</g>
<g>
	<g>
		<path d="M196.8,86.5c1.8-2.7,3.4-5.4,5.3-8c1.7-2.4,3.9-3.7,6.3-5.2c2.2-1.4,4.1-3,5.1-5.4c1.1-2.4,1.5-5.1,1.4-7.8
			c0-1.9-3-1.9-3,0c0,2.4-0.2,5-1.5,7.1c-1.3,2.2-3.6,3.4-5.7,4.7c-2.2,1.4-4,3.1-5.5,5.2c-1.8,2.6-3.5,5.2-5.2,7.9
			C193.1,86.7,195.7,88.2,196.8,86.5L196.8,86.5z"/>
	</g>
</g>
<g>
	<g>
		<path d="M197.8,89.8c-0.7-2.7-2.2-5.1-4.3-6.9c-2.4-2-5.6-3.2-8.5-4.3c-1.5-0.6-3-1-4.5-1.2s-3-0.2-4.4-0.8
			c-2.5-1.1-3.9-3.8-5.2-6c-0.9-1.7-3.5-0.2-2.6,1.5c1.3,2.3,2.6,4.6,4.8,6.2c2.5,1.9,5.3,1.7,8.2,2.3c3,0.7,6,2,8.7,3.5
			c2.6,1.4,4.3,3.7,5.1,6.5C195.4,92.5,198.3,91.7,197.8,89.8L197.8,89.8z"/>
	</g>
</g>
<g>
	<g>
		<path d="M194.1,95.2c2.6,0.8,5.6,0.4,7.9-1.1c1-0.7,1.9-1.6,2.8-2.4c0.4-0.4,0.7-0.6,1.1-0.9c0.1-0.1,0.2-0.1,0.4-0.2
			s-0.3,0.1,0.2-0.1c0.3-0.1,0.2-0.1,0.6-0.1c1.9,0,1.9-3,0-3c-2.6,0-4.2,2-6,3.6c-1.7,1.5-4.1,1.9-6.2,1.3
			C193.1,91.8,192.3,94.7,194.1,95.2L194.1,95.2z"/>
	</g>
</g>
<g>
	<g>
		<path d="M202.8,94.2c2,2.1,4.9,3.3,7.8,3.4c0.8,0,1.5-0.7,1.5-1.5s-0.7-1.5-1.5-1.5c-0.3,0-0.6,0-0.9,0c0,0-0.3,0-0.1,0s0,0-0.1,0
			s-0.3,0-0.4-0.1c-0.3-0.1-0.6-0.1-0.9-0.2c-0.1,0-0.3-0.1-0.4-0.1c-0.1,0-0.1-0.1-0.2-0.1c-0.3-0.1,0.2,0.1,0,0
			c-0.5-0.2-1.1-0.5-1.6-0.9c0,0-0.3-0.3-0.4-0.3c0,0,0.2,0.2,0,0c-0.1,0-0.1-0.1-0.2-0.1c-0.2-0.2-0.5-0.4-0.7-0.7
			c-0.5-0.6-1.6-0.6-2.1,0C202.2,92.7,202.2,93.6,202.8,94.2L202.8,94.2z"/>
	</g>
</g>
<g>
	<g>
		<path d="M206.3,76.9C206.5,76.9,206.5,76.9,206.3,76.9c0.1-0.1,0.2-0.1,0.3-0.1c0.1-0.1,0.3-0.1,0.4-0.2c0.3-0.1,0.7-0.2,1-0.3
			c0.3-0.1,0.7-0.2,1-0.2c0.1,0,0.2,0,0.3,0c-0.1,0-0.1,0,0,0c0.2,0,0.3,0,0.5,0c0.7,0,1.4,0,2.1,0c0.1,0,0.3,0,0.4,0
			c-0.3,0,0.3,0.1,0.3,0.1c0.3,0.1,0.7,0.1,1,0.2c0.8,0.2,1.7-0.3,1.8-1c0.2-0.8-0.2-1.6-1-1.8c-3.2-0.9-6.6-0.6-9.7,0.8
			c-0.7,0.3-0.9,1.4-0.5,2.1C204.7,77.1,205.5,77.3,206.3,76.9L206.3,76.9z"/>
	</g>
</g>
<g>
	<g>
		<path d="M215.6,66.8c0.2-0.5,0.5-1,0.8-1.5c0.1-0.2,0.3-0.5,0.4-0.7c0.1-0.1,0.2-0.2,0.2-0.3c0.1-0.1-0.2,0.3-0.1,0.1
			c0-0.1,0.1-0.1,0.1-0.2c0.3-0.4,0.7-0.8,1.1-1.2c0.2-0.2,0.4-0.4,0.6-0.6l0.1-0.1c0.2-0.2-0.2,0.2-0.1,0.1
			c0.1-0.1,0.3-0.2,0.4-0.3c0.3-0.2,0.6-0.5,0.7-0.9c0.1-0.4,0.1-0.8-0.2-1.2c-0.4-0.6-1.4-1-2.1-0.5c-2.1,1.5-3.8,3.4-4.8,5.8
			c-0.2,0.4-0.3,0.7-0.2,1.2c0.1,0.3,0.4,0.7,0.7,0.9C214.2,67.7,215.3,67.6,215.6,66.8L215.6,66.8z"/>
	</g>
</g>
<g>
	<g>
		<path d="M208,74.1c1-2.7,0.7-5.8-0.6-8.4c-0.4-0.7-1.4-1-2.1-0.5c-0.7,0.5-0.9,1.3-0.5,2.1c0.1,0.1,0.1,0.3,0.2,0.4
			c0.1,0.2,0.1,0.1,0,0c0,0.1,0,0.1,0.1,0.2c0.1,0.3,0.2,0.6,0.3,0.9s0.1,0.6,0.2,0.8c0.1,0.4,0-0.2,0,0.1c0,0.2,0,0.3,0,0.5
			c0,0.3,0,0.6,0,0.9c0,0.2,0,0.3,0,0.5c0,0.1,0,0.5,0,0.1c0,0.6-0.3,1.2-0.5,1.8c-0.3,0.7,0.3,1.7,1,1.8
			C207,75.4,207.7,74.9,208,74.1L208,74.1z"/>
	</g>
</g>
<g>
	<g>
		<path d="M190,82.5c-4.1-0.4-8.4-0.8-12.4,0.8c-1.9,0.8-3.5,2.1-5.1,3.4s-3.4,2.4-5.6,2.1c-0.8-0.1-1.5,0.8-1.5,1.5
			c0,0.9,0.7,1.4,1.5,1.5c4.5,0.6,7.3-3.3,10.8-5.3c3.7-2,8.2-1.5,12.2-1.1C191.9,85.7,191.9,82.7,190,82.5L190,82.5z"/>
	</g>
</g>
<g>
	<g>
		<path d="M182,86.7c0,0.3,0,0.7,0,1c0-0.1,0-0.3,0.1-0.4c0,0.4-0.1,0.7-0.3,1c0.1-0.1,0.1-0.2,0.2-0.4c-0.1,0.3-0.3,0.6-0.5,0.8
			c0.1-0.1,0.2-0.2,0.2-0.3c-0.1,0.1-0.2,0.2-0.3,0.3c-0.3,0.3-0.4,0.7-0.4,1.1s0.2,0.8,0.4,1.1c0.3,0.3,0.7,0.5,1.1,0.4
			c0.4,0,0.8-0.1,1.1-0.4c0.6-0.6,1-1.3,1.3-2.1c0.1-0.4,0.2-0.8,0.2-1.2c0-0.3,0-0.6,0-0.9c0-0.2,0-0.4-0.1-0.6s-0.2-0.3-0.3-0.5
			c-0.3-0.3-0.7-0.5-1.1-0.4c-0.4,0-0.8,0.1-1.1,0.4C182.2,85.9,182,86.3,182,86.7L182,86.7z"/>
	</g>
</g>
<g>
	<g>
		<path d="M184.4,65.4c-0.9-3.3-1.2-6.7-1-10.1c0-0.8-0.7-1.5-1.5-1.5s-1.5,0.7-1.5,1.5c-0.2,3.7,0.2,7.3,1.2,10.9
			C182,68.1,184.9,67.3,184.4,65.4L184.4,65.4z"/>
	</g>
</g>
<g>
	<g>
		<path d="M177.8,62.5c-3.7-3-7.6-5.7-11.7-8.2c-1.7-1-3.2,1.6-1.5,2.6c3.9,2.3,7.6,4.9,11.1,7.7c0.6,0.5,1.5,0.6,2.1,0
			C178.3,64.1,178.4,63,177.8,62.5L177.8,62.5z"/>
	</g>
</g>
<g>
	<g>
		<path d="M172.7,50.4c-1.8-3.6-4.4-6.6-7.6-9c-0.6-0.5-1.7-0.1-2.1,0.5c-0.4,0.8-0.1,1.6,0.5,2.1c0.1,0.1,0.2,0.1,0.3,0.2
			c0.1,0.1,0.3,0.2,0.1,0.1c0.2,0.1,0.4,0.3,0.5,0.4c0.3,0.3,0.7,0.6,1,0.9c0.7,0.6,1.3,1.3,1.9,2c0.1,0.2,0.3,0.3,0.4,0.5
			c0.1,0.1,0.2,0.2,0.1,0.1c0.1,0.1,0.1,0.2,0.2,0.3c0.3,0.4,0.5,0.7,0.8,1.1c0.5,0.8,1,1.6,1.4,2.4c0.3,0.7,1.4,1,2.1,0.5
			C172.9,52,173.1,51.2,172.7,50.4L172.7,50.4z"/>
	</g>
</g>
<g>
	<g>
		<path d="M177,51.4c0-0.2-0.1-0.3-0.1-0.5c0,0-0.1-0.2,0-0.2c0,0.2,0,0.2,0,0.1v-0.1c0-0.3,0-0.6,0-0.9c0-0.2,0-0.3,0-0.5v-0.2
			c0,0,0,0.3,0,0.1c0.1-0.3,0.1-0.6,0.2-1c0-0.1,0.1-0.3,0.1-0.4c0-0.1,0.1-0.1,0.1-0.2c0,0,0.1-0.3,0-0.1s0-0.1,0-0.1
			c0-0.1,0.1-0.1,0.1-0.2c0.1-0.2,0.2-0.3,0.2-0.5c0.1-0.1,0.2-0.3,0.2-0.4c0.1-0.1,0.2-0.3,0.3-0.4L178,46l0.1-0.1
			c0-0.1,0.1-0.1,0.1-0.2c0.1-0.1,0.2-0.3,0.4-0.4c0.6-0.6,0.6-1.6,0-2.1s-1.5-0.6-2.1,0c-2.3,2.4-3.3,5.8-2.5,9
			c0.2,0.8,1.1,1.3,1.8,1C176.7,53,177.2,52.2,177,51.4L177,51.4z"/>
	</g>
</g>
<g>
	<g>
		<path d="M196.1,59.7c2.5-0.8,4.5-2.8,6.6-4.2s4.3-2.5,6.9-2.3c0.8,0.1,1.5-0.7,1.5-1.5c0-0.9-0.7-1.4-1.5-1.5
			c-2.8-0.2-5.5,0.9-7.8,2.3c-1.1,0.7-2.2,1.5-3.2,2.3s-2,1.7-3.3,2C193.5,57.4,194.3,60.3,196.1,59.7L196.1,59.7z"/>
	</g>
</g>
<g>
	<g>
		<path d="M205.4,52.8c0-0.1,0-0.2,0-0.3c0-0.3,0,0.2,0,0s0.1-0.4,0.1-0.6c0.1-0.4,0.2-0.7,0.3-1.1c0.1-0.3-0.1,0.2,0,0
			c0-0.1,0.1-0.2,0.1-0.2c0.1-0.2,0.2-0.3,0.3-0.5c0.2-0.3,0.4-0.6,0.6-1c0.1-0.2-0.2,0.2,0,0c0.1-0.1,0.1-0.2,0.2-0.2
			c0.1-0.1,0.2-0.3,0.4-0.4c0.1-0.1,0.3-0.3,0.4-0.4c0.1-0.1,0.1-0.1,0.2-0.2l0.1-0.1c0.1-0.1,0.1,0-0.1,0.1
			c0.1-0.1,0.3-0.2,0.4-0.3c0.2-0.1,0.4-0.2,0.5-0.3c0.2-0.1,0.3-0.2,0.5-0.2c0.3-0.2-0.3,0.1,0,0c0.1,0,0.2-0.1,0.3-0.1
			c0.7-0.3,1.3-1,1-1.8c-0.2-0.7-1.1-1.3-1.8-1c-3.7,1.3-6.3,4.7-6.6,8.7c-0.1,0.8,0.7,1.5,1.5,1.5
			C204.8,54.2,205.3,53.6,205.4,52.8L205.4,52.8z"/>
	</g>
</g>
<g>
	<g>
		<path d="M190.3,50.4c0.8-1.6,1.6-3.1,2.4-4.7c0.4-0.7,0.2-1.7-0.5-2.1c-0.7-0.4-1.7-0.2-2.1,0.5c-0.8,1.6-1.6,3.1-2.4,4.7
			c-0.4,0.7-0.2,1.7,0.5,2.1S189.9,51.1,190.3,50.4L190.3,50.4z"/>
	</g>
</g>
<g>
	<g>
		<path d="M186.2,36.3c-2.6-6.8-5.9-13.2-10-19.2c-1.1-1.6-3.7-0.1-2.6,1.5c3.9,5.8,7.2,12,9.7,18.5c0.3,0.8,1,1.3,1.8,1
			C185.9,38,186.5,37.1,186.2,36.3L186.2,36.3z"/>
	</g>
</g>
<g>
	<g>
		<path d="M182.4,27.2c0.9-1.9,1.8-3.7,2.8-5.6c0.3-0.7,0.2-1.7-0.5-2.1s-1.7-0.2-2.1,0.5c-0.9,1.9-1.8,3.7-2.8,5.6
			c-0.3,0.7-0.2,1.7,0.5,2.1C181,28.1,182,28,182.4,27.2L182.4,27.2z"/>
	</g>
</g>
<g>
	<g>
		<path d="M182.8,31.5c-1.5-0.6-2.9-1.1-4.4-1.7c-0.3-0.1-0.9,0-1.2,0.2s-0.6,0.5-0.7,0.9c-0.1,0.4-0.1,0.8,0.2,1.2
			c0.2,0.3,0.5,0.5,0.9,0.7c1.5,0.6,2.9,1.1,4.4,1.7c0.3,0.1,0.9,0,1.2-0.2s0.6-0.5,0.7-0.9c0.1-0.4,0.1-0.8-0.2-1.2
			C183.4,31.9,183.1,31.7,182.8,31.5L182.8,31.5z"/>
	</g>
</g>
<g>
	<g>
		<path d="M187.8,36.8c5.1-0.3,10.1-0.4,15.2-0.2c1.9,0.1,1.9-2.9,0-3c-5.1-0.2-10.1-0.1-15.2,0.2C185.9,33.9,185.9,36.9,187.8,36.8
			L187.8,36.8z"/>
	</g>
</g>
<g>
	<g>
		<path d="M191.8,29c0-0.5-0.1,0.2,0-0.3c0,0.2,0.1-0.2,0-0.1c0.2-0.2,0.4-0.4,0.6-0.5c0.6-0.5,1.4-0.8,2.1-1.2
			c1.6-0.9,3.3-1.7,4.9-2.6c1.4-0.8,2.8-1.7,3.6-3.2c0.8-1.6,0.9-3.4,0.9-5.2c0-1.9-3-1.9-3,0c0,1.4,0.1,3.1-0.9,4.2
			c-0.9,1.2-2.5,1.8-3.8,2.5c-1.6,0.9-3.2,1.7-4.8,2.6c-1.4,0.8-2.7,2-2.6,3.8c0,0.8,0.7,1.5,1.5,1.5C191,30.5,191.8,29.9,191.8,29
			L191.8,29z"/>
	</g>
</g>
<g>
	<g>
		<path d="M196.8,23.6c0.1-2.9,0.3-5.7,0.4-8.6c0-0.8-0.7-1.5-1.5-1.5s-1.5,0.7-1.5,1.5c-0.1,2.9-0.3,5.7-0.4,8.6
			c0,0.8,0.7,1.5,1.5,1.5C196.2,25.1,196.8,24.5,196.8,23.6L196.8,23.6z"/>
	</g>
</g>
<g>
	<g>
		<path d="M192.2,24.4c0.3-2-0.2-3.9-0.5-5.8c-0.3-1.8-0.6-3.6-0.9-5.4c-0.1-0.8-1.1-1.2-1.8-1c-0.9,0.2-1.2,1-1,1.8
			c0.3,1.7,0.5,3.4,0.8,5c0.1,0.8,0.3,1.6,0.4,2.4c0.1,0.7,0.3,1.5,0.2,2.2c-0.1,0.8,0.2,1.6,1,1.8
			C191.1,25.6,192.1,25.2,192.2,24.4L192.2,24.4z"/>
	</g>
</g>
<g>
	<g>
		<path d="M192.3,36.8c2.3,1.7,4.8,3.3,7.4,4.6c0.7,0.3,1.7,0.2,2.1-0.5c0.4-0.7,0.2-1.7-0.5-2.1c-2.6-1.3-5.1-2.8-7.4-4.6
			c-0.6-0.5-1.7-0.1-2.1,0.5C191.3,35.6,191.6,36.3,192.3,36.8L192.3,36.8z"/>
	</g>
</g>
<g>
	<g>
		<path d="M319,9.1c3.2,2.8,6.4,5.7,9.7,8.5c1.4,1.2,2.8,2.7,4.4,3.7c1.5,0.9,3.2,0.9,4.9,0.9c4.2,0.1,8.5,0.2,12.7,0.3
			c3.9,0.1,8.2-0.4,11.9,1.1c1.8,0.7,2.6-2.2,0.8-2.9c-3.5-1.4-7.5-1.1-11.2-1.2c-4.1-0.1-8.1-0.2-12.2-0.2c-1.7,0-3.9,0.3-5.4-0.6
			s-2.9-2.4-4.2-3.6c-3.1-2.7-6.2-5.4-9.3-8.2C319.7,5.7,317.5,7.8,319,9.1L319,9.1z"/>
	</g>
</g>
<g>
	<g>
		<path d="M381.2,39.8c2.5,1.6,5.1,3.1,7.6,4.7c1.1,0.6,2.2,1.4,3.5,1.5c1.2,0,2.5-0.6,3.6-1c2.4-0.9,4.8-2,7.1-3.2
			c1.2-0.6,2.4-1.3,3.5-2c0.6-0.3,1.1-0.7,1.7-1.1c0.3-0.2,0.5-0.3,0.8-0.5c0.2-0.1,0.4-0.2,0.6-0.4c0.4-0.2,0.2-0.4-0.6-0.5
			c-0.1-0.4-0.3-0.7-0.4-1.1c0.1-0.2,0.2-0.4,0.3-0.6c0.4-0.1,0.7-0.3,1.1-0.4c-0.1,0-0.1,0-0.2,0c0.1,1,0.3,2,0.4,2.9
			c0.3-0.1,0.6-0.2,0.9-0.3c1.8-0.6,1-3.5-0.8-2.9c-0.3,0.1-0.6,0.2-0.9,0.3c-1.7,0.6-1.2,2.7,0.4,2.9c1.2,0.2,2.1-1.3,1.8-2.4
			c-0.4-1.3-1.9-1.5-3-1c-1.4,0.7-2.7,1.7-4.1,2.5s-2.7,1.5-4.1,2.2s-2.9,1.4-4.3,2c-1.2,0.5-3,1.6-4.2,1c-1.5-0.7-2.9-1.8-4.3-2.6
			c-1.5-0.9-3.1-1.9-4.6-2.8C381,36.2,379.5,38.8,381.2,39.8L381.2,39.8z"/>
	</g>
</g>
<g>
	<g>
		<path d="M390.8,42.1c-0.4,0-0.7,0.1-1,0.3c-0.1,0.1-0.3,0.2-0.4,0.3s-0.2,0.2-0.2,0.3c-0.2,0.3-0.3,0.4-0.4,0.8v0.1
			c0,0.2-0.1,0.4-0.1,0.5s0,0.1,0,0.2c0,0.2,0,0.4,0.1,0.5c0.1,0.4,0.3,0.6,0.5,0.9c0.1,0.1,0.2,0.2,0.3,0.2
			c0.1,0.1,0.2,0.2,0.3,0.2c0.2,0.1,0.4,0.2,0.7,0.2c0.2,0,0.4,0.1,0.6,0.1s0.4,0,0.6-0.1c0.2,0,0.5-0.1,0.7-0.2
			c0.2-0.1,0.4-0.3,0.6-0.4c0.1,0,0.1-0.1,0.1-0.1c0.1-0.1,0.2-0.3,0.4-0.5c0.1-0.2,0.2-0.5,0.3-0.7c0-0.1,0.1-0.3,0.1-0.4
			c0-0.3,0.1-0.5,0.1-0.8c0-0.2,0-0.4-0.1-0.6c0-0.2-0.1-0.4-0.2-0.5v-0.1c-0.1-0.1-0.2-0.3-0.3-0.4l-0.2-0.1
			c-0.1,0-0.1-0.1-0.2-0.1c-0.1-0.1-0.3-0.1-0.4-0.2c-0.3-0.1-0.4-0.1-0.6,0c-0.2,0-0.4,0-0.6,0.2c-0.1,0.1-0.2,0.2-0.3,0.3l0,0
			c-0.1,0.1-0.2,0.2-0.2,0.3l0,0c0,0.1-0.1,0.3-0.2,0.4c0,0,0,0,0,0.1s-0.1,0.3-0.1,0.4c0,0,0,0.4,0.1,0.4l0,0
			c0,0.1,0.1,0.3,0.2,0.4l0,0l0.2,0.3c0.1,0.1,0.2,0.2,0.3,0.2c0.1,0,0.2,0.1,0.2,0.1c0.2,0.1,0.1,0.1,0.4,0.1h0.2
			c0.1,0,0.3,0,0.4-0.1c0.2,0,0.4-0.1,0.5-0.3c0.2-0.1,0.3-0.2,0.4-0.4s0.2-0.4,0.2-0.6c0-0.2,0-0.4,0-0.6c-0.1-0.4-0.3-0.7-0.7-0.9
			c-0.1-0.1-0.2-0.1-0.4-0.2c-0.3-0.1-0.5-0.1-0.8,0l0,0c0.1,0,0.3,0,0.4-0.1l0,0c0.1,0,0.3,0,0.4,0.1l0,0c0.1,0.1,0.2,0.1,0.4,0.2
			l0,0c0.1,0.1,0.2,0.2,0.3,0.2l0,0c0.1,0.1,0.2,0.2,0.2,0.3l0,0c0.1,0.1,0.1,0.2,0.2,0.4l0,0c0,0.1,0,0.3,0.1,0.4l0,0
			c0,0.1,0,0.3-0.1,0.4v-0.1c-0.1,0.1-0.1,0.2-0.2,0.4l0,0c-0.1,0.1-0.2,0.2-0.2,0.3l0,0c-0.1,0.1-0.2,0.2-0.3,0.2l0,0
			c-0.1,0.1-0.2,0.1-0.4,0.2l0,0c-0.1,0-0.3,0-0.4,0.1l0,0c-0.1,0-0.3,0-0.4-0.1l0,0c-0.1-0.1-0.2-0.1-0.4-0.2c0,0,0,0,0.1,0
			c-0.1-0.1-0.2-0.2-0.3-0.2c0,0,0,0,0.1,0.1c-0.1-0.1-0.2-0.2-0.2-0.3c0,0,0,0.1,0.1,0.1c-0.1-0.1-0.1-0.2-0.2-0.4
			c0,0.1,0,0.1,0,0.2c0-0.1,0-0.3-0.1-0.4c0,0.2,0,0.4,0,0.5c0-0.1,0-0.3,0.1-0.4c0,0.2-0.1,0.3-0.1,0.5c0.1-0.1,0.1-0.2,0.2-0.4
			c-0.1,0.1-0.1,0.2-0.2,0.3c0.1-0.1,0.2-0.2,0.2-0.3c-0.1,0.1-0.2,0.2-0.3,0.3c0.1-0.1,0.2-0.2,0.3-0.2c-0.1,0.1-0.2,0.1-0.2,0.1
			c0.1-0.1,0.2-0.1,0.4-0.2c-0.1,0-0.2,0.1-0.3,0.1c0.1,0,0.3,0,0.4-0.1c-0.1,0-0.2,0-0.3,0c0.1,0,0.3,0,0.4,0.1
			c-0.1,0-0.2,0-0.3-0.1c0.1,0.1,0.2,0.1,0.4,0.2c-0.1,0-0.1-0.1-0.2-0.1c0.1,0.1,0.2,0.2,0.3,0.2c-0.1,0-0.1-0.1-0.2-0.2
			c0.1,0.1,0.2,0.2,0.2,0.3c0-0.1-0.1-0.1-0.1-0.2c0.1,0.1,0.1,0.2,0.2,0.4c0-0.1,0-0.1,0-0.2c0,0.1,0,0.3,0.1,0.4
			c0-0.1,0-0.2,0-0.3c0,0.1,0,0.3-0.1,0.4c0-0.1,0-0.2,0.1-0.2c-0.1,0.1-0.1,0.2-0.2,0.4c0-0.1,0.1-0.1,0.1-0.2
			c-0.1,0.1-0.2,0.2-0.2,0.3l0.1-0.1c-0.1,0.1-0.2,0.2-0.3,0.2l0.1-0.1c-0.1,0.1-0.2,0.1-0.4,0.2c0,0,0.1,0,0.2,0
			c-0.1,0-0.3,0-0.4,0.1l0,0c0.2,0,0.4,0,0.6-0.1s0.3-0.2,0.5-0.3c0.1-0.1,0.2-0.3,0.3-0.5c0.1-0.2,0.1-0.4,0.1-0.6
			c0-0.4-0.1-0.8-0.4-1.1C391.6,42.3,391.2,42.1,390.8,42.1L390.8,42.1z"/>
	</g>
</g>
<g>
	<g>
		<path d="M339.1,19.6c-0.9-0.7-2-1-3.2-1.2c0,1,0,2,0,3c0.3,0-0.3-0.1-0.1,0c0.2,0-0.3-0.2-0.1-0.1c-0.2-0.2-0.2-0.2-0.2-0.1
			l0.1,0.1c0,0-0.2-0.3-0.1-0.1c0.1,0.2-0.1-0.3,0-0.1c0.1,0.2,0-0.1,0-0.2V21c0,0.1,0,0.1,0-0.2c-0.1,0.2,0.1-0.2,0.1-0.1
			c-0.1,0.1,0.3-0.3,0.1-0.1c-0.2,0.2,0.3-0.2,0.1-0.1c-0.2,0.1-0.1,0,0.1,0c-0.1,0-0.3,0.1,0,0c0.4,0,0,0,0,0s0.4,0.1,0.2,0
			c-0.2-0.1,0.3,0.2,0.1,0.1c0.1,0.1,0.3,0.2,0.1,0c0.1,0.4,0.3,0.7,0.4,1.1v-0.2c0,0-0.1,0.4,0,0.2c0.1-0.3-0.1,0.1-0.1,0.1
			l0.1-0.2c0.1-0.2-0.2,0.2-0.1,0.1l0.1-0.1c0.1-0.1,0.2-0.1-0.1,0.1l0.1-0.1c0.1-0.1,0.2,0-0.1,0.1c0.1,0,0.1,0,0.2-0.1
			c0.1,0,0.1,0,0.2,0c-0.3,0.1-0.3,0-0.1,0c0.2,0-0.3-0.1-0.2,0h0.1c-0.3,0-0.3-0.2-0.1,0c-0.1-0.1-0.3-0.3-0.1-0.1
			c0.4-0.9,0.7-1.7,1.1-2.6c-0.3,0-0.7,0-1,0c-0.2,0-0.4,0-0.6,0c-0.1,0-0.1,0-0.2,0c-0.3,0,0.2,0,0,0c-0.3-0.1-0.7-0.1-1-0.2
			c-0.2,0-0.3-0.1-0.5-0.2c-0.1,0-0.1-0.1-0.2-0.1s-0.4-0.2-0.1,0c-0.4,0.9-0.8,1.8-1.2,2.7c2.1,0.6,4.2,1.2,6.3,1.7
			c0.8,0.2,1.7-0.3,1.8-1c0.2-0.8-0.2-1.6-1-1.8c-2.1-0.6-4.2-1.2-6.3-1.7c-0.7-0.2-1.5,0.2-1.8,0.9c-0.3,0.6-0.1,1.6,0.6,1.9
			c1.6,0.7,3.3,1,5,0.9c0.6-0.1,1.1-0.3,1.4-0.9c0.2-0.6,0.1-1.2-0.3-1.6c-1.5-1.7-4.2-0.5-4.8,1.4c-0.2,0.7-0.1,1.5,0.4,2
			c0.4,0.4,1.1,0.7,1.7,0.7c1.4,0,2.4-1,2.5-2.4s-1.1-2.8-2.5-2.8c-0.8,0-1.5,0.7-1.5,1.5c0,0.9,0.7,1.4,1.5,1.5c0.4,0-0.3-0.1,0,0
			c0.1,0,0.2,0,0.3,0.1c0.2,0,0.4,0.1,0.6,0.2s-0.3-0.1,0,0c0.1,0,0.2,0.1,0.3,0.1c0.2,0.1,0.4,0.2,0.5,0.4c0.3,0.2,0.8,0.2,1.2,0.2
			c0.3-0.1,0.7-0.4,0.9-0.7c0.2-0.3,0.3-0.8,0.2-1.2C339.7,20.1,339.5,19.8,339.1,19.6L339.1,19.6z"/>
	</g>
</g>
<g>
	<g>
		<path d="M1707.7,29.4c-3.2,2.8-6.4,5.7-9.7,8.5c-1.4,1.2-2.8,2.7-4.4,3.7c-1.5,0.9-3.2,0.9-4.9,0.9c-4.2,0.1-8.5,0.2-12.7,0.3
			c-3.9,0.1-8.2-0.4-11.9,1.1c-1.8,0.7-2.6-2.2-0.8-2.9c3.5-1.4,7.5-1.1,11.2-1.2c4.1-0.1,8.1-0.2,12.2-0.2c1.7,0,3.9,0.3,5.4-0.6
			c1.5-0.9,2.9-2.4,4.2-3.6c3.1-2.7,6.2-5.4,9.3-8.2C1707,26,1709.2,28.1,1707.7,29.4L1707.7,29.4z"/>
	</g>
</g>
<g>
	<g>
		<path d="M1645.5,60.1c-2.5,1.6-5.1,3.1-7.6,4.7c-1.1,0.6-2.2,1.4-3.5,1.5c-1.2,0-2.5-0.6-3.6-1c-2.4-0.9-4.8-2-7.1-3.2
			c-1.2-0.6-2.4-1.3-3.5-2c-0.6-0.3-1.1-0.7-1.7-1.1c-0.3-0.2-0.5-0.3-0.8-0.5c-0.2-0.1-0.4-0.2-0.6-0.4c-0.4-0.2-0.2-0.4,0.6-0.5
			c0.1-0.4,0.3-0.7,0.4-1.1c-0.1-0.2-0.2-0.4-0.3-0.6c-0.4-0.1-0.7-0.3-1.1-0.4c0.1,0,0.1,0,0.2,0c-0.1,1-0.3,2-0.4,2.9
			c-0.3-0.1-0.6-0.2-0.9-0.3c-1.8-0.6-1-3.5,0.8-2.9c0.3,0.1,0.6,0.2,0.9,0.3c1.7,0.6,1.2,2.7-0.4,2.9c-1.2,0.2-2.1-1.3-1.8-2.4
			c0.4-1.3,1.9-1.5,3-1c1.4,0.7,2.7,1.7,4.1,2.5s2.7,1.5,4.1,2.2c1.4,0.7,2.9,1.4,4.3,2c1.2,0.5,3,1.6,4.2,1
			c1.5-0.7,2.9-1.8,4.3-2.6c1.5-0.9,3.1-1.9,4.6-2.8C1645.7,56.5,1647.2,59.1,1645.5,60.1L1645.5,60.1z"/>
	</g>
</g>
<g>
	<g>
		<path d="M1635.9,62.4c0.4,0,0.7,0.1,1,0.3c0.1,0.1,0.3,0.2,0.4,0.3c0.1,0.1,0.2,0.2,0.2,0.3c0.2,0.3,0.3,0.4,0.4,0.8v0.1
			c0,0.2,0.1,0.4,0.1,0.5s0,0.1,0,0.2c0,0.2,0,0.4-0.1,0.5c-0.1,0.4-0.3,0.6-0.5,0.9c-0.1,0.1-0.2,0.2-0.3,0.2
			c-0.1,0.1-0.2,0.2-0.3,0.2c-0.2,0.1-0.4,0.2-0.7,0.2c-0.2,0-0.4,0.1-0.6,0.1c-0.2,0-0.4,0-0.6-0.1c-0.2,0-0.5-0.1-0.7-0.2
			c-0.2-0.1-0.4-0.3-0.6-0.4c-0.1,0-0.1-0.1-0.1-0.1c-0.1-0.1-0.2-0.3-0.4-0.5c-0.1-0.2-0.2-0.5-0.3-0.7c0-0.1-0.1-0.3-0.1-0.4
			c0-0.3-0.1-0.5-0.1-0.8c0-0.2,0-0.4,0.1-0.6c0-0.2,0.1-0.4,0.2-0.5v-0.1c0.1-0.1,0.2-0.3,0.3-0.4l0.2-0.1c0.1,0,0.1-0.1,0.2-0.1
			c0.1-0.1,0.3-0.1,0.4-0.2c0.3-0.1,0.4-0.1,0.6,0c0.2,0,0.4,0,0.6,0.2c0.1,0.1,0.2,0.2,0.3,0.3l0,0c0.1,0.1,0.2,0.2,0.2,0.3l0,0
			c0,0.1,0.1,0.3,0.2,0.4c0,0,0,0,0,0.1s0.1,0.3,0.1,0.4c0,0,0,0.4-0.1,0.4l0,0c0,0.1-0.1,0.3-0.2,0.4l0,0l-0.2,0.3
			c-0.1,0.1-0.2,0.2-0.3,0.2s-0.2,0.1-0.2,0.1c-0.2,0.1-0.1,0.1-0.4,0.1h-0.2c-0.1,0-0.3,0-0.4-0.1c-0.2,0-0.4-0.1-0.5-0.3
			c-0.2-0.1-0.3-0.2-0.4-0.4c-0.1-0.2-0.2-0.4-0.2-0.6c0-0.2,0-0.4,0-0.6c0.1-0.4,0.3-0.7,0.7-0.9c0.1-0.1,0.2-0.1,0.4-0.2
			c0.3-0.1,0.5-0.1,0.8,0l0,0c-0.1,0-0.3,0-0.4-0.1l0,0c-0.1,0-0.3,0-0.4,0.1l0,0c-0.1,0.1-0.2,0.1-0.4,0.2l0,0
			c-0.1,0.1-0.2,0.2-0.3,0.2l0,0c-0.1,0.1-0.2,0.2-0.2,0.3l0,0c-0.1,0.1-0.1,0.2-0.2,0.4l0,0c0,0.1,0,0.3-0.1,0.4l0,0
			c0,0.1,0,0.3,0.1,0.4v-0.1c0.1,0.1,0.1,0.2,0.2,0.4l0,0c0.1,0.1,0.2,0.2,0.2,0.3l0,0c0.1,0.1,0.2,0.2,0.3,0.2l0,0
			c0.1,0.1,0.2,0.1,0.4,0.2l0,0c0.1,0,0.3,0,0.4,0.1l0,0c0.1,0,0.3,0,0.4-0.1l0,0c0.1-0.1,0.2-0.1,0.4-0.2c0,0,0,0-0.1,0
			c0.1-0.1,0.2-0.2,0.3-0.2c0,0,0,0-0.1,0.1c0.1-0.1,0.2-0.2,0.2-0.3c0,0,0,0.1-0.1,0.1c0.1-0.1,0.1-0.2,0.2-0.4c0,0.1,0,0.1,0,0.2
			c0-0.1,0-0.3,0.1-0.4c0,0.2,0,0.4,0,0.5c0-0.1,0-0.3-0.1-0.4c0,0.2,0.1,0.3,0.1,0.5c-0.1-0.1-0.1-0.2-0.2-0.4
			c0.1,0.1,0.1,0.2,0.2,0.3c-0.1-0.1-0.2-0.2-0.2-0.3c0.1,0.1,0.2,0.2,0.3,0.3c-0.1-0.1-0.2-0.2-0.3-0.2c0.1,0.1,0.2,0.1,0.2,0.1
			c-0.1-0.1-0.2-0.1-0.4-0.2c0.1,0,0.2,0.1,0.3,0.1c-0.1,0-0.3,0-0.4-0.1c0.1,0,0.2,0,0.3,0c-0.1,0-0.3,0-0.4,0.1
			c0.1,0,0.2,0,0.3-0.1c-0.1,0.1-0.2,0.1-0.4,0.2c0.1,0,0.1-0.1,0.2-0.1c-0.1,0.1-0.2,0.2-0.3,0.2c0.1,0,0.1-0.1,0.2-0.2
			c-0.1,0.1-0.2,0.2-0.2,0.3c0-0.1,0.1-0.1,0.1-0.2c-0.1,0.1-0.1,0.2-0.2,0.4c0-0.1,0-0.1,0-0.2c0,0.1,0,0.3-0.1,0.4
			c0-0.1,0-0.2,0-0.3c0,0.1,0,0.3,0.1,0.4c0-0.1,0-0.2-0.1-0.2c0.1,0.1,0.1,0.2,0.2,0.4c0-0.1-0.1-0.1-0.1-0.2
			c0.1,0.1,0.2,0.2,0.2,0.3l-0.1-0.1c0.1,0.1,0.2,0.2,0.3,0.2l-0.1-0.1c0.1,0.1,0.2,0.1,0.4,0.2c0,0-0.1,0-0.2,0
			c0.1,0,0.3,0,0.4,0.1l0,0c-0.2,0-0.4,0-0.6-0.1c-0.2-0.1-0.3-0.2-0.5-0.3c-0.1-0.1-0.2-0.3-0.3-0.5c-0.1-0.2-0.1-0.4-0.1-0.6
			c0-0.4,0.1-0.8,0.4-1.1C1635.1,62.6,1635.5,62.4,1635.9,62.4L1635.9,62.4z"/>
	</g>
</g>
<g>
	<g>
		<path d="M1687.6,39.9c0.8-0.6,1.8-1,2.9-1.2c0.1,0,0.3,0.1,0.3,0.2v2.7c-0.3,0,0.3-0.1,0.1,0c-0.2,0,0.3-0.2,0.1-0.1
			c0.2-0.2,0.2-0.2,0.2-0.1l-0.1,0.1c0,0,0.2-0.3,0.1-0.1c-0.1,0.2,0.1-0.3,0-0.1c-0.1,0.2,0-0.1,0-0.2v0.1c0,0.1,0,0.1,0-0.2
			c0.1,0.2-0.1-0.2-0.1-0.1c0.1,0.1-0.3-0.3-0.1-0.1c0.2,0.2-0.3-0.2-0.1-0.1c0.2,0.1,0.1,0-0.1,0c0.1,0,0.3,0.1,0,0c-0.4,0,0,0,0,0
			s-0.4,0.1-0.2,0c0.2-0.1-0.3,0.2-0.1,0.1c-0.1,0.1-0.3,0.2-0.1,0c-0.1,0.4-0.3,0.7-0.4,1.1v-0.2c0,0,0.1,0.4,0,0.2
			c-0.1-0.3,0.1,0.1,0.1,0.1l-0.1-0.2c-0.1-0.2,0.2,0.2,0.1,0.1l-0.1-0.1c-0.1-0.1-0.2-0.1,0.1,0.1l-0.1-0.1c-0.1-0.1-0.2,0,0.1,0.1
			c-0.1,0-0.1,0-0.2-0.1c-0.1,0-0.1,0-0.2,0c0.3,0.1,0.3,0,0.1,0s0.3-0.1,0.2,0h-0.1c0.3,0,0.3-0.2,0.1,0c0.1-0.1,0.3-0.3,0.1-0.1
			c-0.4-0.9-0.7-1.7-1.1-2.6c0.3,0,0.7,0,1,0c0.2,0,0.4,0,0.6,0c0.1,0,0.1,0,0.2,0c0.3,0-0.2,0,0,0c0.3-0.1,0.7-0.1,1-0.2
			c0.2,0,0.3-0.1,0.5-0.2c0.1,0,0.1-0.1,0.2-0.1s0.4-0.2,0.1,0c0.4,0.8,0.7,1.6,1.1,2.5c0.1,0.1,0,0.3-0.1,0.3c-2,0.6-4,1.1-6.1,1.6
			c-0.8,0.2-1.7-0.3-1.8-1c-0.2-0.8,0.2-1.6,1-1.8c2.1-0.6,4.2-1.2,6.3-1.7c0.7-0.2,1.5,0.2,1.8,0.9c0.3,0.6,0.1,1.6-0.6,1.9
			c-1.6,0.7-3.3,1-5,0.9c-0.6-0.1-1.1-0.3-1.4-0.9c-0.2-0.6-0.1-1.2,0.3-1.6c1.5-1.7,4.2-0.5,4.8,1.4c0.2,0.7,0.1,1.5-0.4,2
			c-0.3,0.3-0.9,0.6-1.4,0.7c-0.4,0-0.7,0-1-0.2c-3.1-1.4-1.5-4.8,0.6-5c0.9-0.1,1.8,0.8,1.7,1.7c-0.1,0.8-0.8,1.2-1.5,1.3
			c-0.4,0,0.3-0.1,0,0c-0.1,0-0.2,0-0.3,0.1c-0.2,0-0.4,0.1-0.6,0.2c-0.2,0.1,0.3-0.1,0,0c-0.1,0-0.2,0.1-0.3,0.1
			c-0.2,0.1-0.4,0.2-0.5,0.4c-0.3,0.2-0.8,0.2-1.2,0.2c-0.3-0.1-0.7-0.4-0.9-0.7c-0.2-0.3-0.3-0.8-0.2-1.2
			C1687,40.4,1687.2,40.1,1687.6,39.9L1687.6,39.9z"/>
	</g>
</g>
<g>
	<g>
		<path d="M1685.7,61.5c3.2,2.8,6.4,5.7,9.7,8.5c1.4,1.2,2.8,2.7,4.4,3.7c1.5,0.9,3.2,0.9,4.9,0.9c4.2,0.1,8.5,0.2,12.7,0.3
			c3.9,0.1,8.2-0.4,11.9,1.1c1.8,0.7,2.6-2.2,0.8-2.9c-3.5-1.4-7.5-1.1-11.2-1.2c-4.1-0.1-8.1-0.2-12.2-0.2c-1.7,0-3.9,0.3-5.4-0.6
			s-2.9-2.4-4.2-3.6c-3.1-2.7-6.2-5.4-9.3-8.2C1686.4,58.1,1684.2,60.2,1685.7,61.5L1685.7,61.5z"/>
	</g>
</g>
<g>
	<g>
		<path d="M1705.8,72c-0.9-0.7-2-1-3.2-1.2v3c0.3,0-0.3-0.1-0.1,0c0.2,0-0.3-0.2-0.1-0.1c-0.2-0.2-0.2-0.2-0.2-0.1l0.1,0.1
			c0,0-0.2-0.3-0.1-0.1c0.1,0.2-0.1-0.3,0-0.1s0-0.1,0-0.2v0.1c0,0.1,0,0.1,0-0.2c-0.1,0.2,0.1-0.2,0.1-0.1
			c-0.1,0.1,0.3-0.3,0.1-0.1c-0.2,0.2,0.3-0.2,0.1-0.1c-0.2,0.1-0.1,0,0.1,0c-0.1,0-0.3,0.1,0,0c0.4,0,0,0,0,0s0.4,0.1,0.2,0
			c-0.2-0.1,0.3,0.2,0.1,0.1c0.1,0.1,0.3,0.2,0.1,0c0.1,0.4,0.3,0.7,0.4,1.1v-0.2c0,0-0.1,0.4,0,0.2c0.1-0.3-0.1,0.1-0.1,0.1
			l0.1-0.2c0.1-0.2-0.2,0.2-0.1,0.1l0.1-0.1c0.1-0.1,0.2-0.1-0.1,0.1l0.1-0.1c0.1-0.1,0.2,0-0.1,0.1c0.1,0,0.1,0,0.2-0.1
			c0.1,0,0.1,0,0.2,0c-0.3,0.1-0.3,0-0.1,0c0.2,0-0.3-0.1-0.2,0h0.1c-0.3,0-0.3-0.2-0.1,0c-0.1-0.1-0.3-0.3-0.1-0.1
			c0.4-0.9,0.7-1.7,1.1-2.6c-0.3,0-0.7,0-1,0c-0.2,0-0.4,0-0.6,0c-0.1,0-0.1,0-0.2,0c-0.3,0,0.2,0,0,0c-0.3-0.1-0.7-0.1-1-0.2
			c-0.2,0-0.3-0.1-0.5-0.2c-0.1,0-0.1-0.1-0.2-0.1c-0.1,0-0.4-0.2-0.1,0c-0.4,0.9-0.8,1.8-1.2,2.7c2.1,0.6,4.2,1.2,6.3,1.7
			c0.8,0.2,1.7-0.3,1.8-1c0.2-0.8-0.2-1.6-1-1.8c-2.1-0.6-4.2-1.2-6.3-1.7c-0.7-0.2-1.5,0.2-1.8,0.9c-0.3,0.6-0.1,1.6,0.6,1.9
			c1.6,0.7,3.3,1,5,0.9c0.6-0.1,1.1-0.3,1.4-0.9c0.2-0.6,0.1-1.2-0.3-1.6c-1.5-1.7-4.2-0.5-4.8,1.4c-0.2,0.7-0.1,1.5,0.4,2
			c0.4,0.4,1.3,0.8,1.9,0.7c0,0,0.1,0,0.1,0c4.4-1.5,1.3-6.5-1.5-4.8c-0.8,1.6,0.1,2.5,1.2,2.6c0.4,0-0.3-0.1,0,0
			c0.1,0,0.2,0,0.3,0.1c0.2,0,0.4,0.1,0.6,0.2c0.2,0.1-0.3-0.1,0,0c0.1,0,0.2,0.1,0.3,0.1c0.2,0.1,0.4,0.2,0.5,0.4
			c0.3,0.2,0.8,0.2,1.2,0.2c0.3-0.1,0.7-0.4,0.9-0.7c0.2-0.3,0.3-0.8,0.2-1.2C1706.4,72.5,1706.2,72.2,1705.8,72L1705.8,72z"/>
	</g>
</g>
</svg>
